<svg width="32" height="30" viewBox="0 0 32 30" fill="none" xmlns="http://www.w3.org/2000/svg">
<path d="M15.5277 0.358693C15.6834 -0.0890872 16.3166 -0.0890868 16.4723 0.358693L19.8827 10.17C19.9514 10.3676 20.1357 10.5015 20.3448 10.5058L30.7298 10.7174C31.2038 10.7271 31.3995 11.3293 31.0217 11.6157L22.7444 17.8911C22.5778 18.0175 22.5074 18.2342 22.5679 18.4343L25.5758 28.3765C25.7131 28.8302 25.2008 29.2025 24.8116 28.9317L16.2856 22.9987C16.1139 22.8793 15.8861 22.8793 15.7144 22.9987L7.18835 28.9317C6.79923 29.2025 6.28691 28.8302 6.42419 28.3765L9.43206 18.4343C9.49262 18.2342 9.42221 18.0175 9.25556 17.8911L0.97829 11.6157C0.600524 11.3293 0.796214 10.7271 1.27018 10.7174L11.6552 10.5058C11.8643 10.5015 12.0486 10.3676 12.1173 10.17L15.5277 0.358693Z" fill="#F9ABE1" fill-opacity="0.75"/>
</svg>
