<svg width="1391" height="666" viewBox="0 0 1391 666" fill="none" xmlns="http://www.w3.org/2000/svg">
<mask id="mask0_65_108" style="mask-type:alpha" maskUnits="userSpaceOnUse" x="-1" y="0" width="1393" height="666">
<rect x="-0.000244141" width="1391" height="666" rx="30" fill="url(#paint0_linear_65_108)"/>
</mask>
<g mask="url(#mask0_65_108)">
<path d="M737 538.408V811.703C737 821.39 741.967 829.297 748.054 835.245C754.118 841.172 762.328 846.234 771.669 850.652C790.422 859.519 816.684 867.143 848.043 873.415C910.984 886.003 997.329 893.692 1092.28 893.692C1187.24 893.692 1273.58 886.003 1336.52 873.415C1367.88 867.143 1394.15 859.519 1412.9 850.652C1422.24 846.234 1430.45 841.172 1436.51 835.245C1442.6 829.297 1447.57 821.39 1447.57 811.703V538.408" stroke="#F9ABE1" stroke-width="5" style="mix-blend-mode:darken"/>
<path d="M1092.28 606.732C1280.95 606.732 1433.9 576.143 1433.9 538.408V811.703C1433.9 849.438 1280.95 880.027 1092.28 880.027C903.613 880.027 750.665 849.438 750.665 811.703V538.408C750.665 576.143 903.613 606.732 1092.28 606.732Z" fill="#F9ABE1" style="mix-blend-mode:darken"/>
<path d="M864.082 438.656C854.188 440.245 857.026 439.372 848.042 441.169C816.684 447.44 790.422 455.065 771.669 463.932C762.328 468.349 754.118 473.412 748.054 479.338C741.967 485.287 737 493.194 737 502.88C737 512.567 741.967 520.473 748.054 526.422C754.118 532.349 762.328 537.411 771.669 541.828C790.422 550.696 816.684 558.32 848.042 564.592C910.984 577.18 997.329 584.869 1092.28 584.869C1187.24 584.869 1273.58 577.18 1336.52 564.592C1367.88 558.32 1394.14 550.696 1412.9 541.828C1422.24 537.411 1430.45 532.349 1436.51 526.422C1442.6 520.473 1447.57 512.567 1447.57 502.88C1447.57 493.194 1442.6 485.287 1436.51 479.338C1430.45 473.412 1422.24 468.349 1412.9 463.932C1394.14 455.065 1367.88 447.44 1336.52 441.169C1331.33 440.131 1325.98 439.126 1320.48 438.156M987.065 423.625C1000.85 422.854 1017.64 422.209 1034.89 421.739M1157.87 422.14C1171.37 422.66 1184.6 423.339 1197.5 424.166" stroke="#F9ABE1" stroke-width="5" style="mix-blend-mode:darken"/>
<path d="M1092.28 571.204C1280.95 571.204 1433.9 540.614 1433.9 502.88C1433.9 482.689 1390.11 464.544 1320.48 452.036V517.912H1197.5V437.859C1184.61 437.025 1171.38 436.34 1157.87 435.815V561.639H1034.89V435.517C1018.52 436.07 1002.55 436.857 987.065 437.859V535.676H864.082V452.036C794.457 464.544 750.665 482.689 750.665 502.88C750.665 540.614 903.613 571.204 1092.28 571.204Z" fill="#F9ABE1" style="mix-blend-mode:darken"/>
<path d="M884.579 280.378H882.079V282.878V515.178V517.678H884.579H966.567H969.067V515.178V282.878V280.378H966.567H884.579Z" fill="#F9ABE1" style="mix-blend-mode:darken"/>
<path d="M884.579 280.378H882.079V282.878V515.178V517.678H884.579H966.567H969.067V515.178V282.878V280.378H966.567H884.579Z" stroke="#F9ABE1" stroke-width="5" style="mix-blend-mode:darken"/>
<rect x="898.244" y="296.542" width="54.659" height="204.971" fill="#F9ABE1" style="mix-blend-mode:darken"/>
<mask id="path-8-outside-1_65_108" maskUnits="userSpaceOnUse" x="880.946" y="118" width="90" height="143" fill="black">
<rect fill="white" x="880.946" y="118" width="90" height="143"/>
<path d="M958.334 219.27C980.955 236.502 942.129 255.548 922.14 255.548C902.15 255.548 885.946 246.478 885.946 219.27C885.946 194.56 918.033 132.453 921.896 123.966C921.944 123.566 922.025 123.285 922.14 123.131C922.389 122.798 922.287 123.108 921.896 123.966C920.814 133.023 936.669 202.766 958.334 219.27Z"/>
</mask>
<path d="M958.334 219.27C980.955 236.502 942.129 255.548 922.14 255.548C902.15 255.548 885.946 246.478 885.946 219.27C885.946 194.56 918.033 132.453 921.896 123.966C921.944 123.566 922.025 123.285 922.14 123.131C922.389 122.798 922.287 123.108 921.896 123.966C920.814 133.023 936.669 202.766 958.334 219.27Z" fill="#F9ABE1" style="mix-blend-mode:darken"/>
<path d="M958.334 219.27L961.363 215.292V215.292L958.334 219.27ZM922.14 123.131L918.136 120.136L918.136 120.136L922.14 123.131ZM955.304 223.247C960.038 226.853 960.433 229.569 960.114 231.307C959.688 233.636 957.58 236.652 953.248 239.847C944.688 246.159 931.015 250.548 922.14 250.548V260.548C933.253 260.548 948.988 255.414 959.183 247.895C964.228 244.174 968.835 239.198 969.951 233.109C971.175 226.429 967.94 220.302 961.363 215.292L955.304 223.247ZM922.14 250.548C912.8 250.548 905.118 248.418 899.819 243.831C894.655 239.362 890.946 231.853 890.946 219.27H880.946C880.946 233.895 885.339 244.525 893.275 251.393C901.075 258.144 911.49 260.548 922.14 260.548V250.548ZM890.946 219.27C890.946 213.93 892.73 206.051 895.774 196.695C898.775 187.472 902.84 177.286 907.062 167.518C915.597 147.771 924.319 130.712 926.447 126.038L917.346 121.895C915.61 125.707 906.357 143.945 897.883 163.551C893.6 173.46 889.401 183.963 886.265 193.6C883.172 203.105 880.946 212.254 880.946 219.27H890.946ZM926.447 126.038C926.604 125.692 926.885 125.075 927.045 124.546C927.066 124.477 927.244 123.923 927.271 123.219C927.279 123.02 927.354 121.744 926.551 120.416C926.056 119.598 925.22 118.76 923.998 118.309C922.841 117.883 921.805 117.976 921.149 118.126C920.01 118.386 919.279 118.98 919.127 119.101C918.854 119.318 918.659 119.52 918.562 119.624C918.36 119.84 918.209 120.038 918.136 120.136L926.143 126.126C926.132 126.141 926.033 126.276 925.871 126.449C925.794 126.531 925.617 126.716 925.36 126.921C925.223 127.03 924.503 127.617 923.374 127.875C922.723 128.024 921.691 128.117 920.538 127.692C919.32 127.242 918.487 126.406 917.994 125.592C917.196 124.272 917.272 123.008 917.279 122.826C917.295 122.422 917.358 122.114 917.385 121.99C917.419 121.837 917.452 121.72 917.471 121.658C917.544 121.415 917.579 121.382 917.346 121.895L926.447 126.038ZM918.136 120.136C917.165 121.434 916.989 122.895 916.932 123.373L926.861 124.56C926.864 124.532 926.854 124.647 926.794 124.851C926.763 124.958 926.709 125.124 926.617 125.327C926.528 125.526 926.379 125.811 926.143 126.126L918.136 120.136ZM916.932 123.373C916.712 125.206 916.937 127.864 917.306 130.642C917.699 133.602 918.338 137.258 919.19 141.372C920.897 149.606 923.498 159.854 926.818 170.335C930.134 180.802 934.205 191.617 938.879 200.932C943.482 210.106 948.952 218.408 955.304 223.247L961.363 215.292C956.883 211.879 952.246 205.275 947.817 196.447C943.459 187.761 939.572 177.48 936.351 167.315C933.135 157.165 930.621 147.248 928.982 139.343C928.162 135.387 927.571 131.98 927.219 129.327C926.843 126.493 926.809 124.991 926.861 124.56L916.932 123.373Z" fill="#F9ABE1" style="mix-blend-mode:darken" mask="url(#path-8-outside-1_65_108)"/>
<path d="M947.437 218.752C964.518 231.734 935.201 246.082 920.108 246.082C905.014 246.082 892.778 239.249 892.778 218.752C892.778 200.138 917.007 153.351 919.924 146.958C919.96 146.657 920.021 146.445 920.108 146.329C920.296 146.078 920.219 146.311 919.924 146.958C919.107 153.781 931.078 206.32 947.437 218.752Z" fill="#F9ABE1" style="mix-blend-mode:darken"/>
<path d="M1055.39 365.099H1052.89V367.599V541.142V543.642H1055.39H1137.38H1139.88V541.142V367.599V365.099H1137.38H1055.39Z" fill="#F9ABE1" style="mix-blend-mode:darken"/>
<path d="M1055.39 365.099H1052.89V367.599V541.142V543.642H1055.39H1137.38H1139.88V541.142V367.599V365.099H1137.38H1055.39Z" stroke="#F9ABE1" stroke-width="5" style="mix-blend-mode:darken"/>
<rect x="1069.05" y="377.164" width="54.659" height="154.412" fill="#F9ABE1" style="mix-blend-mode:darken"/>
<mask id="path-13-outside-2_65_108" maskUnits="userSpaceOnUse" x="1051.76" y="202.722" width="90" height="143" fill="black">
<rect fill="white" x="1051.76" y="202.722" width="90" height="143"/>
<path d="M1129.14 303.991C1151.76 321.223 1112.94 340.27 1092.95 340.27C1072.96 340.27 1056.76 331.2 1056.76 303.991C1056.76 279.282 1088.84 217.174 1092.71 208.688C1092.75 208.288 1092.83 208.006 1092.95 207.853C1093.2 207.519 1093.1 207.829 1092.71 208.688C1091.62 217.744 1107.48 287.487 1129.14 303.991Z"/>
</mask>
<path d="M1129.14 303.991C1151.76 321.223 1112.94 340.27 1092.95 340.27C1072.96 340.27 1056.76 331.2 1056.76 303.991C1056.76 279.282 1088.84 217.174 1092.71 208.688C1092.75 208.288 1092.83 208.006 1092.95 207.853C1093.2 207.519 1093.1 207.829 1092.71 208.688C1091.62 217.744 1107.48 287.487 1129.14 303.991Z" fill="#F9ABE1" style="mix-blend-mode:darken"/>
<path d="M1129.14 303.991L1132.17 300.014V300.014L1129.14 303.991ZM1092.95 207.853L1088.95 204.858L1088.95 204.858L1092.95 207.853ZM1126.11 307.968C1130.85 311.575 1131.24 314.29 1130.92 316.028C1130.5 318.358 1128.39 321.373 1124.06 324.568C1115.5 330.881 1101.82 335.27 1092.95 335.27V345.27C1104.06 345.27 1119.8 340.135 1129.99 332.617C1135.04 328.896 1139.64 323.919 1140.76 317.831C1141.98 311.151 1138.75 305.023 1132.17 300.014L1126.11 307.968ZM1092.95 335.27C1083.61 335.27 1075.93 333.139 1070.63 328.553C1065.46 324.084 1061.76 316.575 1061.76 303.991H1051.76C1051.76 318.616 1056.15 329.247 1064.08 336.114C1071.88 342.865 1082.3 345.27 1092.95 345.27V335.27ZM1061.76 303.991C1061.76 298.652 1063.54 290.772 1066.58 281.416C1069.58 272.194 1073.65 262.007 1077.87 252.24C1086.41 232.493 1095.13 215.434 1097.26 210.759L1088.16 206.616C1086.42 210.428 1077.17 228.667 1068.69 248.272C1064.41 258.181 1060.21 268.685 1057.07 278.322C1053.98 287.826 1051.76 296.976 1051.76 303.991H1061.76ZM1097.26 210.759C1097.41 210.413 1097.69 209.796 1097.85 209.267C1097.88 209.198 1098.05 208.644 1098.08 207.94C1098.09 207.742 1098.16 206.465 1097.36 205.138C1096.87 204.32 1096.03 203.481 1094.81 203.031C1093.65 202.604 1092.61 202.698 1091.96 202.847C1090.82 203.107 1090.09 203.701 1089.94 203.823C1089.66 204.04 1089.47 204.241 1089.37 204.345C1089.17 204.562 1089.02 204.76 1088.95 204.858L1096.95 210.848C1096.94 210.862 1096.84 210.997 1096.68 211.17C1096.6 211.252 1096.43 211.437 1096.17 211.642C1096.03 211.752 1095.31 212.339 1094.18 212.597C1093.53 212.745 1092.5 212.838 1091.35 212.413C1090.13 211.964 1089.3 211.128 1088.8 210.314C1088.01 208.994 1088.08 207.729 1088.09 207.548C1088.1 207.144 1088.17 206.835 1088.19 206.711C1088.23 206.559 1088.26 206.442 1088.28 206.379C1088.35 206.137 1088.39 206.104 1088.16 206.616L1097.26 210.759ZM1088.95 204.858C1087.97 206.155 1087.8 207.617 1087.74 208.094L1097.67 209.281C1097.67 209.253 1097.66 209.369 1097.6 209.572C1097.57 209.679 1097.52 209.845 1097.43 210.048C1097.34 210.247 1097.19 210.532 1096.95 210.848L1088.95 204.858ZM1087.74 208.094C1087.52 209.928 1087.75 212.585 1088.12 215.364C1088.51 218.323 1089.15 221.979 1090 226.094C1091.71 234.328 1094.31 244.576 1097.63 255.057C1100.94 265.523 1105.01 276.338 1109.69 285.653C1114.29 294.827 1119.76 303.13 1126.11 307.968L1132.17 300.014C1127.69 296.6 1123.06 289.996 1118.63 281.169C1114.27 272.482 1110.38 262.201 1107.16 252.037C1103.95 241.887 1101.43 231.97 1099.79 224.064C1098.97 220.109 1098.38 216.701 1098.03 214.049C1097.65 211.215 1097.62 209.712 1097.67 209.281L1087.74 208.094Z" fill="#F9ABE1" style="mix-blend-mode:darken" mask="url(#path-13-outside-2_65_108)"/>
<path d="M1118.25 303.474C1135.33 316.455 1106.01 330.803 1090.92 330.803C1075.82 330.803 1063.59 323.971 1063.59 303.474C1063.59 284.86 1087.82 238.073 1090.73 231.679C1090.77 231.378 1090.83 231.166 1090.92 231.051C1091.11 230.799 1091.03 231.033 1090.73 231.679C1089.92 238.502 1101.89 291.041 1118.25 303.474Z" fill="#F9ABE1" style="mix-blend-mode:darken"/>
<path d="M1218 285.844H1215.5V288.344V497.414V499.914H1218H1299.99H1302.49V497.414V288.344V285.844H1299.99H1218Z" fill="#F9ABE1" style="mix-blend-mode:darken"/>
<path d="M1218 285.844H1215.5V288.344V497.414V499.914H1218H1299.99H1302.49V497.414V288.344V285.844H1299.99H1218Z" stroke="#F9ABE1" stroke-width="5" style="mix-blend-mode:darken"/>
<rect x="1231.66" y="300.642" width="54.659" height="184.474" fill="#F9ABE1" style="mix-blend-mode:darken"/>
<mask id="path-18-outside-3_65_108" maskUnits="userSpaceOnUse" x="1214.37" y="123.466" width="90" height="143" fill="black">
<rect fill="white" x="1214.37" y="123.466" width="90" height="143"/>
<path d="M1291.75 224.735C1314.38 241.968 1275.55 261.014 1255.56 261.014C1235.57 261.014 1219.37 251.944 1219.37 224.735C1219.37 200.026 1251.45 137.919 1255.32 129.432C1255.36 129.032 1255.45 128.751 1255.56 128.597C1255.81 128.264 1255.71 128.574 1255.32 129.432C1254.23 138.489 1270.09 208.232 1291.75 224.735Z"/>
</mask>
<path d="M1291.75 224.735C1314.38 241.968 1275.55 261.014 1255.56 261.014C1235.57 261.014 1219.37 251.944 1219.37 224.735C1219.37 200.026 1251.45 137.919 1255.32 129.432C1255.36 129.032 1255.45 128.751 1255.56 128.597C1255.81 128.264 1255.71 128.574 1255.32 129.432C1254.23 138.489 1270.09 208.232 1291.75 224.735Z" fill="#F9ABE1" style="mix-blend-mode:darken"/>
<path d="M1291.75 224.735L1294.78 220.758V220.758L1291.75 224.735ZM1255.56 128.597L1251.56 125.602L1251.56 125.602L1255.56 128.597ZM1288.72 228.713C1293.46 232.319 1293.85 235.035 1293.53 236.773C1293.11 239.102 1291 242.118 1286.67 245.313C1278.11 251.625 1264.44 256.014 1255.56 256.014V266.014C1266.67 266.014 1282.41 260.88 1292.6 253.361C1297.65 249.64 1302.26 244.664 1303.37 238.575C1304.6 231.895 1301.36 225.768 1294.78 220.758L1288.72 228.713ZM1255.56 256.014C1246.22 256.014 1238.54 253.883 1233.24 249.297C1228.07 244.828 1224.37 237.319 1224.37 224.735H1214.37C1214.37 239.361 1218.76 249.991 1226.69 256.859C1234.5 263.61 1244.91 266.014 1255.56 266.014V256.014ZM1224.37 224.735C1224.37 219.396 1226.15 211.516 1229.19 202.161C1232.2 192.938 1236.26 182.752 1240.48 172.984C1249.02 153.237 1257.74 136.178 1259.87 131.504L1250.77 127.361C1249.03 131.172 1239.78 149.411 1231.3 169.017C1227.02 178.926 1222.82 189.429 1219.69 199.066C1216.59 208.571 1214.37 217.72 1214.37 224.735H1224.37ZM1259.87 131.504C1260.02 131.157 1260.31 130.541 1260.47 130.012C1260.49 129.943 1260.66 129.389 1260.69 128.685C1260.7 128.486 1260.77 127.21 1259.97 125.882C1259.48 125.064 1258.64 124.226 1257.42 123.775C1256.26 123.349 1255.23 123.442 1254.57 123.592C1253.43 123.852 1252.7 124.446 1252.55 124.567C1252.27 124.784 1252.08 124.986 1251.98 125.09C1251.78 125.306 1251.63 125.504 1251.56 125.602L1259.56 131.592C1259.55 131.607 1259.45 131.742 1259.29 131.915C1259.21 131.997 1259.04 132.181 1258.78 132.387C1258.64 132.496 1257.92 133.083 1256.79 133.341C1256.14 133.49 1255.11 133.583 1253.96 133.158C1252.74 132.708 1251.91 131.872 1251.41 131.058C1250.62 129.738 1250.69 128.474 1250.7 128.292C1250.72 127.888 1250.78 127.58 1250.81 127.456C1250.84 127.303 1250.87 127.186 1250.89 127.124C1250.96 126.881 1251 126.848 1250.77 127.361L1259.87 131.504ZM1251.56 125.602C1250.59 126.9 1250.41 128.361 1250.35 128.839L1260.28 130.025C1260.28 129.997 1260.27 130.113 1260.21 130.317C1260.18 130.424 1260.13 130.59 1260.04 130.792C1259.95 130.991 1259.8 131.277 1259.56 131.592L1251.56 125.602ZM1250.35 128.839C1250.13 130.672 1250.36 133.33 1250.73 136.108C1251.12 139.068 1251.76 142.724 1252.61 146.838C1254.32 155.072 1256.92 165.32 1260.24 175.801C1263.55 186.268 1267.63 197.083 1272.3 206.398C1276.9 215.572 1282.37 223.874 1288.72 228.713L1294.78 220.758C1290.3 217.345 1285.67 210.741 1281.24 201.913C1276.88 193.227 1272.99 182.946 1269.77 172.781C1266.56 162.631 1264.04 152.714 1262.4 144.808C1261.58 140.853 1260.99 137.446 1260.64 134.793C1260.26 131.959 1260.23 130.456 1260.28 130.025L1250.35 128.839Z" fill="#F9ABE1" style="mix-blend-mode:darken" mask="url(#path-18-outside-3_65_108)"/>
<path d="M1280.86 224.218C1297.94 237.2 1268.62 251.548 1253.53 251.548C1238.43 251.548 1226.2 244.715 1226.2 224.218C1226.2 205.604 1250.43 158.817 1253.34 152.424C1253.38 152.123 1253.44 151.911 1253.53 151.795C1253.72 151.544 1253.64 151.777 1253.34 152.424C1252.53 159.247 1264.5 211.786 1280.86 224.218Z" fill="#F9ABE1" style="mix-blend-mode:darken"/>
</g>
<defs>
<linearGradient id="paint0_linear_65_108" x1="-0.00030806" y1="-15.9619" x2="1439.74" y2="562.117" gradientUnits="userSpaceOnUse">
<stop offset="0.46875" stop-color="#F9ABE1"/>
<stop offset="1" stop-color="#F8D5B7"/>
</linearGradient>
</defs>
</svg>
